HIERARCHY
ROOT Hips
{
	OFFSET -0.001795 -0.223333 0.028219
	CHANNELS 6 Xposition Yposition Zposition Zrotation Yrotation Xrotation 
	JOINT LeftUpLeg
	{
		OFFSET 0.069520 -0.091406 -0.006815
		CHANNELS 3 Zrotation Yrotation Xrotation
		JOINT LeftLeg
		{
			OFFSET 0.034277 -0.375199 -0.004496
			CHANNELS 3 Zrotation Yrotation Xrotation
			JOINT LeftFoot
			{
				OFFSET -0.013596 -0.397961 -0.043693
				CHANNELS 3 Zrotation Yrotation Xrotation
				JOINT LeftToe
				{
					OFFSET 0.026358 -0.055791 0.119288
					CHANNELS 3 Zrotation Yrotation Xrotation
					End Site
					{
						OFFSET 0.000000 0.000000 0.000000
					}
				}
			}
		}
	}
	JOINT RightUpLeg
	{
		OFFSET -0.067670 -0.090522 -0.004320
		CHANNELS 3 Zrotation Yrotation Xrotation
		JOINT RightLeg
		{
			OFFSET -0.038290 -0.382569 -0.008850
			CHANNELS 3 Zrotation Yrotation Xrotation
			JOINT RightFoot
			{
				OFFSET 0.015774 -0.398415 -0.042312
				CHANNELS 3 Zrotation Yrotation Xrotation
				JOINT RightToe
				{
					OFFSET -0.025372 -0.048144 0.123348
					CHANNELS 3 Zrotation Yrotation Xrotation
					End Site
					{
						OFFSET 0.000000 0.000000 0.000000
					}
				}
			}
		}
	}
	JOINT Spine
	{
		OFFSET -0.002533 0.108963 -0.026696
		CHANNELS 3 Zrotation Yrotation Xrotation
		JOINT Spine1
		{
			OFFSET 0.005487 0.135180 0.001092
			CHANNELS 3 Zrotation Yrotation Xrotation
			JOINT Spine2
			{
				OFFSET 0.001457 0.052922 0.025425
				CHANNELS 3 Zrotation Yrotation Xrotation
				JOINT Neck
				{
					OFFSET -0.002778 0.213870 -0.042857
					CHANNELS 3 Zrotation Yrotation Xrotation
					JOINT Head
					{
						OFFSET 0.005152 0.064970 0.051349
						CHANNELS 3 Zrotation Yrotation Xrotation
						End Site
						{
							OFFSET 0.000000 0.000000 0.000000
						}
					}
				}
				JOINT LeftShoulder
				{
					OFFSET 0.078845 0.121749 -0.034090
					CHANNELS 3 Zrotation Yrotation Xrotation
					JOINT LeftArm
					{
						OFFSET 0.090977 0.030469 -0.008868
						CHANNELS 3 Zrotation Yrotation Xrotation
						JOINT LeftForeArm
						{
							OFFSET 0.259612 -0.012772 -0.027456
							CHANNELS 3 Zrotation Yrotation Xrotation
							JOINT LeftHand
							{
								OFFSET 0.249234 0.008986 -0.001171
								CHANNELS 3 Zrotation Yrotation Xrotation
								End Site
								{
									OFFSET 0.000000 0.000000 0.000000
								}
							}
						}
					}
				}
				JOINT RightShoulder
				{
					OFFSET -0.081759 0.118833 -0.038615
					CHANNELS 3 Zrotation Yrotation Xrotation
					JOINT RightArm
					{
						OFFSET -0.096012 0.032551 -0.009143
						CHANNELS 3 Zrotation Yrotation Xrotation
						JOINT RightForeArm
						{
							OFFSET -0.253742 -0.013329 -0.021401
							CHANNELS 3 Zrotation Yrotation Xrotation
							JOINT RightHand
							{
								OFFSET -0.255298 0.007772 -0.005559
								CHANNELS 3 Zrotation Yrotation Xrotation
								End Site
								{
									OFFSET 0.000000 0.000000 0.000000
								}
							}
						}
					}
				}
			}
		}
	}
}
MOTION
Frames: 7
Frame Time: 0.050000
0.000000 0.906022 0.000000 -1.786014 2.554857 16.127495 14.531307 0.200148 -28.923254 -10.518394 2.357350 21.862248 3.957878 13.143741 22.492735 0.000000 0.000000 0.000000 -20.294279 -1.491163 -28.392991 7.575098 -1.395823 15.809539 -7.473441 -18.674943 19.022249 0.000000 0.000000 0.000000 4.522888 -3.315035 32.984708 -2.916251 1.250119 -25.774303 -1.575710 6.027883 23.227486 15.519396 -4.098744 -34.549721 0.000000 0.000000 0.000000 -17.176394 -37.289100 17.505727 -61.681781 -48.615442 18.786691 6.901808 -24.094170 -0.362286 0.000000 0.000000 0.000000 24.707744 24.719801 16.829571 51.869620 55.284338 19.013927 -18.798377 7.076628 -0.185028 0.000000 0.000000 0.000000 
-0.012532 0.902787 0.000164 -1.889656 3.627445 18.288806 16.285635 0.448202 -30.924389 -11.422068 2.497212 20.791554 3.761929 13.022070 22.308882 0.000000 0.000000 0.000000 -21.751053 -2.011726 -29.656797 10.357211 -2.103644 14.802333 -7.516240 -18.595497 18.608897 0.000000 0.000000 0.000000 4.463685 -3.348478 32.043693 -1.132692 0.915662 -26.730094 -2.387339 6.255397 23.817624 17.805404 -4.633824 -36.534618 0.000000 0.000000 0.000000 -19.606005 -37.621438 18.260624 -56.061752 -48.069032 16.105290 6.602356 -26.050692 -0.321911 0.000000 0.000000 0.000000 25.908449 23.322706 16.703897 52.972814 56.694486 20.267409 -20.969426 7.234514 -0.152979 0.000000 0.000000 0.000000 
-0.025394 0.902132 0.000065 -2.249713 3.007601 18.542964 17.347120 0.765830 -30.924966 -11.131258 2.515912 21.432977 3.376692 12.063092 20.369600 0.000000 0.000000 0.000000 -20.814828 -1.893567 -31.590281 10.466454 -2.222603 16.634860 -7.194955 -18.198819 18.449769 0.000000 0.000000 0.000000 4.164236 -3.263545 32.819980 -2.992977 1.243924 -26.898216 -1.940717 4.948743 22.359513 17.360676 -5.466433 -32.602415 0.000000 0.000000 0.000000 -19.924583 -37.572520 18.846360 -52.057193 -49.050473 15.200652 7.182781 -22.921652 -0.403083 0.000000 0.000000 0.000000 27.620830 24.226915 17.162512 49.454294 54.796477 17.365741 -20.260831 6.870325 -0.142753 0.000000 0.000000 0.000000 
-0.038307 0.902975 -0.000726 -2.841846 2.536391 20.130625 18.714860 1.114941 -31.122864 -10.991915 2.459468 20.211896 3.451998 11.543534 17.347136 0.000000 0.000000 0.000000 -20.190761 -1.765012 -33.487312 9.787397 -1.973437 16.163149 -4.861247 -14.523018 18.879329 0.000000 0.000000 0.000000 4.729409 -3.331123 31.759754 -3.955069 1.384543 -27.604043 -2.179085 4.034146 22.934731 16.931136 -4.983180 -34.336954 0.000000 0.000000 0.000000 -17.301170 -38.075428 18.790143 -52.650163 -51.827050 16.937382 9.987912 -18.721994 -0.758867 0.000000 0.000000 0.000000 26.754663 23.856649 16.205843 51.595160 56.480393 19.531091 -20.302815 4.730906 0.172214 0.000000 0.000000 0.000000 
-0.051401 0.905101 -0.002200 -3.297473 1.678046 20.754158 19.589858 1.411509 -30.878014 -10.137451 2.324864 20.718933 2.591292 9.428921 14.092088 0.000000 0.000000 0.000000 -19.126558 -1.443215 -35.066890 10.211064 -2.050434 16.524783 -4.961450 -14.867052 18.898343 0.000000 0.000000 0.000000 3.909883 -3.003676 32.256577 -2.631576 1.146925 -27.886158 -2.756349 4.127161 22.541067 16.952924 -5.158888 -33.577083 0.000000 0.000000 0.000000 -15.608034 -37.985713 18.332366 -48.892707 -53.537427 16.163330 10.892509 -14.977828 -0.722822 0.000000 0.000000 0.000000 27.175662 24.538063 16.647647 50.280004 56.452091 18.857499 -19.351269 4.097209 0.228246 0.000000 0.000000 0.000000 
-0.064034 0.908181 -0.004149 -3.873321 1.273857 21.837507 20.720241 1.626840 -30.065486 -9.611704 2.150032 19.581130 2.188249 7.731555 10.057156 0.000000 0.000000 0.000000 -17.476069 -0.930707 -35.783559 9.815374 -1.828042 15.134699 -5.129712 -15.217611 18.402945 0.000000 0.000000 0.000000 4.075558 -3.080552 32.722463 -2.988511 1.181293 -29.675775 -2.310654 3.316064 22.919910 17.188623 -5.418490 -33.624683 0.000000 0.000000 0.000000 -17.011273 -38.252298 19.341087 -43.572356 -53.663593 13.777828 10.806564 -11.352353 -0.529208 0.000000 0.000000 0.000000 27.776565 24.730848 16.510727 48.948404 56.123595 17.934384 -17.870207 3.916006 0.216915 0.000000 0.000000 0.000000 
-0.076498 0.910035 -0.006203 -3.719081 0.989793 22.513239 20.836418 1.665036 -29.993193 -8.701096 1.828768 18.133864 2.117850 7.929417 11.555204 0.000000 0.000000 0.000000 -16.955330 -0.763050 -36.366931 10.042528 -1.788557 13.835580 -5.664415 -16.217025 19.116664 0.000000 0.000000 0.000000 3.784865 -2.988139 33.205008 -2.995863 1.181397 -29.416571 -2.716952 2.653033 22.321442 16.692477 -5.179112 -33.730011 0.000000 0.000000 0.000000 -15.988053 -37.822046 19.023039 -41.417605 -55.331360 13.594559 12.126634 -8.007962 -0.420058 0.000000 0.000000 0.000000 27.353733 24.806915 16.168909 49.915584 56.440423 18.729012 -17.555142 3.777366 0.226280 0.000000 0.000000 0.000000 
